<svg width="40" height="40" viewBox="0 0 40 40" fill="none" xmlns="http://www.w3.org/2000/svg">
  <!-- Background circle -->
  <circle cx="20" cy="20" r="20" fill="#2563EB"/>
  
  <!-- Brain/IA symbol -->
  <path d="M12 16C12 13.7909 13.7909 12 16 12H24C26.2091 12 28 13.7909 28 16V24C28 26.2091 26.2091 28 24 28H16C13.7909 28 12 26.2091 12 24V16Z" fill="white"/>
  
  <!-- Circuit lines -->
  <path d="M16 16H24" stroke="#2563EB" stroke-width="1.5" stroke-linecap="round"/>
  <path d="M16 20H24" stroke="#2563EB" stroke-width="1.5" stroke-linecap="round"/>
  <path d="M16 24H24" stroke="#2563EB" stroke-width="1.5" stroke-linecap="round"/>
  
  <!-- Data points -->
  <circle cx="18" cy="18" r="1.5" fill="#2563EB"/>
  <circle cx="22" cy="18" r="1.5" fill="#2563EB"/>
  <circle cx="18" cy="22" r="1.5" fill="#2563EB"/>
  <circle cx="22" cy="22" r="1.5" fill="#2563EB"/>
  
  <!-- Connection dots -->
  <circle cx="14" cy="14" r="1" fill="white" opacity="0.8"/>
  <circle cx="26" cy="14" r="1" fill="white" opacity="0.8"/>
  <circle cx="14" cy="26" r="1" fill="white" opacity="0.8"/>
  <circle cx="26" cy="26" r="1" fill="white" opacity="0.8"/>
</svg>
